<svg width="31" height="27" viewBox="0 0 31 27" fill="none" xmlns="http://www.w3.org/2000/svg">
<g clip-path="url(#clip0_377_352)">
<path d="M0 2.18793C0 0.977732 0.98651 0 2.20758 0H28.6985C29.9195 0 30.9061 0.977732 30.9061 2.18793C30.9061 3.39813 29.9195 4.37586 28.6985 4.37586H2.20758C0.98651 4.37586 0 3.39813 0 2.18793ZM0 13.1276C0 11.9174 0.98651 10.9397 2.20758 10.9397H28.6985C29.9195 10.9397 30.9061 11.9174 30.9061 13.1276C30.9061 14.3378 29.9195 15.3155 28.6985 15.3155H2.20758C0.98651 15.3155 0 14.3378 0 13.1276ZM30.9061 24.0672C30.9061 25.2774 29.9195 26.2552 28.6985 26.2552H2.20758C0.98651 26.2552 0 25.2774 0 24.0672C0 22.857 0.98651 21.8793 2.20758 21.8793H28.6985C29.9195 21.8793 30.9061 22.857 30.9061 24.0672Z" fill="#302625"/>
</g>
<defs>
<clipPath id="clip0_377_352">
<rect width="31" height="27" fill="white"/>
</clipPath>
</defs>
</svg>
