<svg width="21" height="21" viewBox="0 0 21 21" fill="none" xmlns="http://www.w3.org/2000/svg">
<path d="M4.19672 2.57248C4.17047 2.30341 3.94406 2.09998 3.675 2.09998C3.40594 2.09998 3.17953 2.30341 3.15 2.56919L2.68734 7.01201C2.64469 7.20888 2.625 7.40904 2.625 7.60919C2.625 9.11529 3.77672 10.3523 5.25 10.4869V17.85C5.25 18.4308 5.71922 18.9 6.3 18.9C6.88078 18.9 7.35 18.4308 7.35 17.85V10.4869C8.82328 10.3523 9.975 9.11529 9.975 7.60919C9.975 7.40904 9.95531 7.20888 9.91266 7.01201L9.44672 2.56919C9.42047 2.30341 9.19406 2.09998 8.925 2.09998C8.65594 2.09998 8.42953 2.30341 8.40328 2.57248L7.95703 7.01857C7.93734 7.2056 7.77984 7.34998 7.59281 7.34998C7.4025 7.34998 7.245 7.2056 7.22531 7.01529L6.82172 2.57904C6.79875 2.30669 6.57234 2.09998 6.3 2.09998C6.02766 2.09998 5.80125 2.30669 5.77828 2.57904L5.37469 7.01529C5.35828 7.2056 5.1975 7.34998 5.00719 7.34998C4.81687 7.34998 4.65937 7.2056 4.64297 7.01857L4.19672 2.57248ZM16.8 2.09998C16.275 2.09998 12.6 3.14998 12.6 7.87498V11.55C12.6 12.7083 13.5417 13.65 14.7 13.65H15.75V17.85C15.75 18.4308 16.2192 18.9 16.8 18.9C17.3808 18.9 17.85 18.4308 17.85 17.85V3.14998C17.85 2.56919 17.3808 2.09998 16.8 2.09998Z" fill="white"/>
</svg>
