<svg width="24" height="24" viewBox="0 0 24 24" fill="none" xmlns="http://www.w3.org/2000/svg">
<path d="M18.0004 10.2C18.0004 11.9213 17.4416 13.5113 16.5004 14.8013L21.2479 19.5525C21.7166 20.0213 21.7166 20.7825 21.2479 21.2513C20.7791 21.72 20.0179 21.72 19.5491 21.2513L14.8016 16.5C13.5116 17.4413 11.9216 18 10.2004 18C5.89164 18 2.40039 14.5088 2.40039 10.2C2.40039 5.89125 5.89164 2.4 10.2004 2.4C14.5091 2.4 18.0004 5.89125 18.0004 10.2ZM10.2004 15.6C13.1816 15.6 15.6004 13.1813 15.6004 10.2C15.6004 7.21875 13.1816 4.8 10.2004 4.8C7.21914 4.8 4.80039 7.21875 4.80039 10.2C4.80039 13.1813 7.21914 15.6 10.2004 15.6Z" fill="black" fill-opacity="0.7"/>
</svg>
