<svg width="18" height="18" viewBox="0 0 18 18" fill="none" xmlns="http://www.w3.org/2000/svg">
<path d="M8.99981 1.79999C12.9767 1.79999 16.1998 5.02311 16.1998 8.99999C16.1998 12.9769 12.9767 16.2 8.99981 16.2C5.02293 16.2 1.7998 12.9769 1.7998 8.99999C1.7998 5.02311 5.02293 1.79999 8.99981 1.79999ZM8.32481 5.17499V8.99999C8.32481 9.22499 8.43731 9.43593 8.62574 9.56249L11.3257 11.3625C11.6351 11.5706 12.0542 11.4862 12.2623 11.1741C12.4704 10.8619 12.3861 10.4456 12.0739 10.2375L9.67481 8.63999V5.17499C9.67481 4.80093 9.37387 4.49999 8.99981 4.49999C8.62574 4.49999 8.32481 4.80093 8.32481 5.17499Z" fill="#231F20"/>
</svg>
