<svg width="16" height="16" viewBox="0 0 16 16" fill="none" xmlns="http://www.w3.org/2000/svg">
<path d="M14.5 8C14.5 11.5906 11.5906 14.5 8 14.5C4.40938 14.5 1.5 11.5906 1.5 8C1.5 4.40938 4.40938 1.5 8 1.5C11.5906 1.5 14.5 4.40938 14.5 8ZM0 8C0 12.4187 3.58125 16 8 16C12.4187 16 16 12.4187 16 8C16 3.58125 12.4187 0 8 0C3.58125 0 0 3.58125 0 8ZM7.25 3.75V8C7.25 8.25 7.375 8.48438 7.58438 8.625L10.5844 10.625C10.9281 10.8562 11.3938 10.7625 11.625 10.4156C11.8562 10.0687 11.7625 9.60625 11.4156 9.375L8.75 7.6V3.75C8.75 3.33437 8.41562 3 8 3C7.58437 3 7.25 3.33437 7.25 3.75Z" fill="black" fill-opacity="0.7"/>
</svg>
