<svg width="20" height="20" viewBox="0 0 20 20" fill="none" xmlns="http://www.w3.org/2000/svg">
<path d="M4.0002 7.89375C4.0002 4.6375 6.6877 2 10.0002 2C13.3127 2 16.0002 4.6375 16.0002 7.89375C16.0002 11.6219 12.2439 16.0906 10.6752 17.7938C10.3064 18.1938 9.69082 18.1938 9.32207 17.7938C7.75332 16.0906 3.99707 11.6219 3.99707 7.89375H4.0002ZM10.0002 10C11.1033 10 12.0002 9.10313 12.0002 8C12.0002 6.89687 11.1033 6 10.0002 6C8.89707 6 8.00019 6.89687 8.00019 8C8.00019 9.10313 8.89707 10 10.0002 10Z" fill="#231F20"/>
</svg>
