<svg width="14" height="14" viewBox="0 0 14 14" fill="none" xmlns="http://www.w3.org/2000/svg">
<path d="M7.47004 0.986514C7.38035 0.811514 7.19879 0.699951 7.00191 0.699951C6.80504 0.699951 6.62348 0.811514 6.53379 0.986514L4.92379 4.14089L1.42598 4.69651C1.23129 4.72714 1.06941 4.86495 1.00816 5.05308C0.946914 5.2412 0.997226 5.44683 1.13504 5.58683L3.63754 8.09151L3.08629 11.5893C3.05566 11.784 3.1366 11.9809 3.29629 12.0968C3.45598 12.2128 3.66598 12.2303 3.84316 12.1406L7.00191 10.535L10.1585 12.1406C10.3335 12.2303 10.5457 12.2128 10.7054 12.0968C10.865 11.9809 10.946 11.7862 10.9154 11.5893L10.3619 8.09151L12.8644 5.58683C13.0044 5.44683 13.0525 5.2412 12.9913 5.05308C12.93 4.86495 12.7704 4.72714 12.5735 4.69651L9.07785 4.14089L7.47004 0.986514Z" fill="#FFD43B"/>
</svg>
