<svg width="24" height="24" viewBox="0 0 24 24" fill="none" xmlns="http://www.w3.org/2000/svg">
<path d="M10.5004 4.79999C10.0016 4.79999 9.60039 5.20124 9.60039 5.69999C9.60039 6.19874 10.0016 6.59999 10.5004 6.59999H11.1004V7.84874C7.08039 8.27624 3.90789 11.5387 3.62289 15.6H20.3816C20.0929 11.5387 16.9204 8.27624 12.9004 7.84874V6.59999H13.5004C13.9991 6.59999 14.4004 6.19874 14.4004 5.69999C14.4004 5.20124 13.9991 4.79999 13.5004 4.79999H10.5004ZM3.30039 17.4C2.80164 17.4 2.40039 17.8012 2.40039 18.3C2.40039 18.7987 2.80164 19.2 3.30039 19.2H20.7004C21.1991 19.2 21.6004 18.7987 21.6004 18.3C21.6004 17.8012 21.1991 17.4 20.7004 17.4H3.30039Z" fill="#231F20"/>
</svg>
