<svg width="24" height="24" viewBox="0 0 24 24" fill="none" xmlns="http://www.w3.org/2000/svg">
<g clip-path="url(#clip0_550_1615)">
<path d="M14.4772 2.38412C13.9246 1.87196 13.0709 1.87196 12.5228 2.38412L2.45852 11.7288C2.02719 12.1331 1.88342 12.7576 2.09908 13.3057C2.31474 13.8538 2.84042 14.2177 3.43349 14.2177H4.15237V22.1247C4.15237 23.7106 5.44185 25 7.02787 25H19.9676C21.5537 25 22.8431 23.7106 22.8431 22.1247V14.2177H23.562C24.1551 14.2177 24.6853 13.8538 24.9009 13.3057C25.1166 12.7576 24.9728 12.1286 24.5415 11.7288L14.4772 2.38412ZM12.7789 16.3742H14.2166C15.4073 16.3742 16.3733 17.3401 16.3733 18.5306V22.8435H10.6223V18.5306C10.6223 17.3401 11.5882 16.3742 12.7789 16.3742Z" fill="#231F20"/>
</g>
<defs>
<clipPath id="clip0_550_1615">
<rect width="24" height="24" fill="white"/>
</clipPath>
</defs>
</svg>
