<svg width="24" height="24" viewBox="0 0 24 24" fill="none" xmlns="http://www.w3.org/2000/svg">
<path d="M8.40793 3.33749C8.11168 2.62874 7.33918 2.25374 6.60418 2.45249L6.39793 2.50874C3.97543 3.16874 1.90543 5.51624 2.50918 8.37374C3.90043 14.9362 9.06418 20.1 15.6267 21.4912C18.4879 22.0987 20.8317 20.025 21.4917 17.6025L21.5479 17.3962C21.7504 16.6575 21.3717 15.885 20.6667 15.5925L17.0179 14.0737C16.3992 13.815 15.6829 13.995 15.2554 14.5162L13.8079 16.2862C11.1717 14.9775 9.04918 12.7875 7.83043 10.0987L9.48793 8.74874C10.0092 8.32499 10.1854 7.60874 9.93043 6.98624L8.40793 3.33749Z" fill="#231F20"/>
</svg>
