<svg width="24" height="24" viewBox="0 0 24 24" fill="none" xmlns="http://www.w3.org/2000/svg">
<path d="M4.79625 2.94002C4.76625 2.63252 4.5075 2.40002 4.2 2.40002C3.8925 2.40002 3.63375 2.63252 3.6 2.93627L3.07125 8.01377C3.0225 8.23877 3 8.46752 3 8.69627C3 10.4175 4.31625 11.8313 6 11.985V20.4C6 21.0638 6.53625 21.6 7.2 21.6C7.86375 21.6 8.4 21.0638 8.4 20.4V11.985C10.0837 11.8313 11.4 10.4175 11.4 8.69627C11.4 8.46752 11.3775 8.23877 11.3287 8.01377L10.7962 2.93627C10.7662 2.63252 10.5075 2.40002 10.2 2.40002C9.8925 2.40002 9.63375 2.63252 9.60375 2.94002L9.09375 8.02127C9.07125 8.23502 8.89125 8.40002 8.6775 8.40002C8.46 8.40002 8.28 8.23502 8.2575 8.01752L7.79625 2.94752C7.77 2.63627 7.51125 2.40002 7.2 2.40002C6.88875 2.40002 6.63 2.63627 6.60375 2.94752L6.1425 8.01752C6.12375 8.23502 5.94 8.40002 5.7225 8.40002C5.505 8.40002 5.325 8.23502 5.30625 8.02127L4.79625 2.94002ZM19.2 2.40002C18.6 2.40002 14.4 3.60002 14.4 9.00002V13.2C14.4 14.5238 15.4762 15.6 16.8 15.6H18V20.4C18 21.0638 18.5362 21.6 19.2 21.6C19.8637 21.6 20.4 21.0638 20.4 20.4V3.60002C20.4 2.93627 19.8637 2.40002 19.2 2.40002Z" fill="#231F20"/>
</svg>
