<svg width="37" height="37" viewBox="0 0 37 37" fill="none" xmlns="http://www.w3.org/2000/svg">
<path d="M10.4159 7.59196C9.63491 6.81101 8.36665 6.81101 7.58571 7.59196C6.80476 8.3729 6.80476 9.64116 7.58571 10.4221L16.1699 19L7.59196 27.5841C6.81101 28.3651 6.81101 29.6333 7.59196 30.4143C8.3729 31.1952 9.64116 31.1952 10.4221 30.4143L19 21.8301L27.5841 30.408C28.3651 31.189 29.6333 31.189 30.4143 30.408C31.1952 29.6271 31.1952 28.3588 30.4143 27.5779L21.8301 19L30.408 10.4159C31.189 9.63491 31.189 8.36665 30.408 7.58571C29.6271 6.80476 28.3588 6.80476 27.5779 7.58571L19 16.1699L10.4159 7.59196Z" fill="black"/>
</svg>
