<svg width="48" height="48" viewBox="0 0 48 48" fill="none" xmlns="http://www.w3.org/2000/svg">
<path d="M12.0002 7.2002C9.3527 7.2002 7.2002 9.3527 7.2002 12.0002V36.0002C7.2002 38.6477 9.3527 40.8002 12.0002 40.8002H36.0002C38.6477 40.8002 40.8002 38.6477 40.8002 36.0002V12.0002C40.8002 9.3527 38.6477 7.2002 36.0002 7.2002H12.0002ZM22.8827 24.8927L15.3302 20.3552C14.7527 20.0102 14.4002 19.3877 14.4002 18.7127C14.4002 17.6552 15.2552 16.8002 16.3127 16.8002H31.6802C32.7377 16.8002 33.5927 17.6552 33.5927 18.7127C33.5927 19.3877 33.2402 20.0102 32.6627 20.3552L25.1177 24.8927C24.7802 25.0952 24.3977 25.2002 24.0002 25.2002C23.6027 25.2002 23.2202 25.0952 22.8827 24.8927ZM33.6002 22.5977V28.8002C33.6002 30.1277 32.5277 31.2002 31.2002 31.2002H16.8002C15.4727 31.2002 14.4002 30.1277 14.4002 28.8002V22.5977L21.6527 26.9477C22.3577 27.3752 23.1752 27.6002 24.0002 27.6002C24.8252 27.6002 25.6427 27.3752 26.3477 26.9477L33.6002 22.5977Z" fill="black" fill-opacity="0.7"/>
</svg>
