<svg width="48" height="48" viewBox="0 0 48 48" fill="none" xmlns="http://www.w3.org/2000/svg">
<path d="M12.0002 7.2002C9.3527 7.2002 7.2002 9.3527 7.2002 12.0002V36.0002C7.2002 38.6477 9.3527 40.8002 12.0002 40.8002H19.3652V29.8652H15.4052V24.0002H19.3652V21.4727C19.3652 14.9402 22.3202 11.9102 28.7402 11.9102C29.9552 11.9102 32.0552 12.1502 32.9177 12.3902V17.7002C32.4677 17.6552 31.6802 17.6252 30.6977 17.6252C27.5477 17.6252 26.3327 18.8177 26.3327 21.9152V24.0002H32.6027L31.5227 29.8652H26.3252V40.8002H36.0002C38.6477 40.8002 40.8002 38.6477 40.8002 36.0002V12.0002C40.8002 9.3527 38.6477 7.2002 36.0002 7.2002H12.0002Z" fill="black" fill-opacity="0.7"/>
</svg>
