<svg width="48" height="48" viewBox="0 0 48 48" fill="none" xmlns="http://www.w3.org/2000/svg">
<path d="M21.7802 20.6777C20.5502 21.4502 19.8377 22.8377 19.9127 24.2852C19.9952 25.7402 20.8652 27.0302 22.1702 27.6677C23.4827 28.2977 25.0352 28.1627 26.2202 27.3227C27.4502 26.5502 28.1627 25.1627 28.0877 23.7152C28.0052 22.2602 27.1352 20.9702 25.8302 20.3327C24.5177 19.7027 22.9652 19.8377 21.7802 20.6777ZM32.4527 15.5477C32.0627 15.1577 31.5902 14.8502 31.0727 14.6477C29.7152 14.1152 26.7527 14.1377 24.8402 14.1602C24.5327 14.1602 24.2477 14.1677 24.0002 14.1677C23.7527 14.1677 23.4602 14.1677 23.1452 14.1602C21.2327 14.1377 18.2852 14.1077 16.9277 14.6477C16.4102 14.8502 15.9452 15.1577 15.5477 15.5477C15.1502 15.9377 14.8502 16.4102 14.6477 16.9277C14.1152 18.2852 14.1452 21.2552 14.1602 23.1677C14.1602 23.4752 14.1677 23.7602 14.1677 24.0002C14.1677 24.2402 14.1677 24.5252 14.1602 24.8327C14.1452 26.7452 14.1152 29.7152 14.6477 31.0727C14.8502 31.5902 15.1577 32.0552 15.5477 32.4527C15.9377 32.8502 16.4102 33.1502 16.9277 33.3527C18.2852 33.8852 21.2477 33.8627 23.1602 33.8402C23.4677 33.8402 23.7527 33.8327 24.0002 33.8327C24.2477 33.8327 24.5402 33.8327 24.8552 33.8402C26.7677 33.8627 29.7152 33.8927 31.0727 33.3527C31.5902 33.1502 32.0552 32.8427 32.4527 32.4527C32.8502 32.0627 33.1502 31.5902 33.3527 31.0727C33.8927 29.7227 33.8627 26.7677 33.8402 24.8477C33.8402 24.5327 33.8327 24.2402 33.8327 23.9927C33.8327 23.7452 33.8327 23.4602 33.8402 23.1377C33.8627 21.2252 33.8927 18.2702 33.3527 16.9127C33.1502 16.3952 32.8427 15.9302 32.4527 15.5327V15.5477ZM27.4202 18.8852C28.7777 19.7927 29.7152 21.2027 30.0377 22.8002C30.3602 24.3977 30.0227 26.0627 29.1152 27.4202C28.6652 28.0952 28.0877 28.6652 27.4202 29.1152C26.7527 29.5652 25.9952 29.8727 25.2002 30.0302C23.6027 30.3452 21.9377 30.0152 20.5802 29.1077C19.2227 28.2002 18.2852 26.7902 17.9627 25.1927C17.6402 23.5952 17.9777 21.9302 18.8777 20.5727C19.7777 19.2152 21.1952 18.2777 22.7927 17.9552C24.3902 17.6327 26.0552 17.9702 27.4127 18.8702H27.4202V18.8852ZM29.6102 18.7877C29.3777 18.6302 29.1902 18.4052 29.0777 18.1427C28.9652 17.8802 28.9427 17.5952 28.9952 17.3102C29.0477 17.0252 29.1902 16.7777 29.3852 16.5752C29.5802 16.3727 29.8427 16.2377 30.1202 16.1852C30.3977 16.1327 30.6902 16.1552 30.9527 16.2677C31.2152 16.3802 31.4402 16.5602 31.5977 16.7927C31.7552 17.0252 31.8377 17.3027 31.8377 17.5877C31.8377 17.7752 31.8002 17.9627 31.7327 18.1352C31.6652 18.3077 31.5527 18.4652 31.4252 18.6002C31.2977 18.7352 31.1327 18.8402 30.9602 18.9152C30.7877 18.9902 30.6002 19.0277 30.4127 19.0277C30.1277 19.0277 29.8502 18.9452 29.6177 18.7877H29.6102ZM40.8002 12.0002C40.8002 9.3527 38.6477 7.2002 36.0002 7.2002H12.0002C9.3527 7.2002 7.2002 9.3527 7.2002 12.0002V36.0002C7.2002 38.6477 9.3527 40.8002 12.0002 40.8002H36.0002C38.6477 40.8002 40.8002 38.6477 40.8002 36.0002V12.0002ZM33.9752 33.9752C32.5727 35.3777 30.8702 35.8202 28.9502 35.9177C26.9702 36.0302 21.0302 36.0302 19.0502 35.9177C17.1302 35.8202 15.4277 35.3777 14.0252 33.9752C12.6227 32.5727 12.1802 30.8702 12.0902 28.9502C11.9777 26.9702 11.9777 21.0302 12.0902 19.0502C12.1877 17.1302 12.6227 15.4277 14.0252 14.0252C15.4277 12.6227 17.1377 12.1802 19.0502 12.0902C21.0302 11.9777 26.9702 11.9777 28.9502 12.0902C30.8702 12.1877 32.5727 12.6227 33.9752 14.0252C35.3777 15.4277 35.8202 17.1302 35.9102 19.0502C36.0227 21.0227 36.0227 26.9552 35.9102 28.9427C35.8127 30.8627 35.3777 32.5652 33.9752 33.9677V33.9752Z" fill="black" fill-opacity="0.7"/>
</svg>
